<svg width="32" height="32" viewBox="0 0 32 32" fill="none" xmlns="http://www.w3.org/2000/svg">
  <!-- Timer Circle Background -->
  <circle cx="16" cy="16" r="15" fill="#2563EB" stroke="#1D4ED8" stroke-width="2"/>
  
  <!-- Timer Tick Marks -->
  <g stroke="#E5E7EB" stroke-width="1" opacity="0.6">
    <!-- 12 o'clock -->
    <line x1="16" y1="3" x2="16" y2="6"/>
    <!-- 3 o'clock -->
    <line x1="29" y1="16" x2="26" y2="16"/>
    <!-- 6 o'clock -->
    <line x1="16" y1="29" x2="16" y2="26"/>
    <!-- 9 o'clock -->
    <line x1="3" y1="16" x2="6" y2="16"/>
  </g>
  
  <!-- Timer Hands -->
  <g stroke="#FFFFFF" stroke-width="2" stroke-linecap="round">
    <!-- Hour hand pointing to 2 -->
    <line x1="16" y1="16" x2="20" y2="12"/>
    <!-- Minute hand pointing to 12 -->
    <line x1="16" y1="16" x2="16" y2="8"/>
  </g>
  
  <!-- Center dot -->
  <circle cx="16" cy="16" r="1.5" fill="#FFFFFF"/>
  
  <!-- Cube overlay (simplified 3D cube) -->
  <g transform="translate(20, 4)">
    <!-- Cube faces -->
    <path d="M0 4 L4 0 L8 4 L4 8 Z" fill="#EF4444" stroke="#DC2626" stroke-width="0.5"/>
    <path d="M4 0 L8 4 L8 8 L4 4 Z" fill="#F97316" stroke="#EA580C" stroke-width="0.5"/>
    <path d="M0 4 L4 8 L8 8 L4 4 Z" fill="#FBBF24" stroke="#F59E0B" stroke-width="0.5"/>
    
    <!-- Cube grid lines -->
    <g stroke="#000000" stroke-width="0.3" opacity="0.3">
      <!-- Top face grid -->
      <line x1="1.33" y1="5.33" x2="5.33" y2="1.33"/>
      <line x1="2.67" y1="6.67" x2="6.67" y2="2.67"/>
      <line x1="1.33" y1="2.67" x2="5.33" y2="6.67"/>
      <line x1="2.67" y1="1.33" x2="6.67" y2="5.33"/>
      
      <!-- Right face grid -->
      <line x1="5.33" y1="2.67" x2="5.33" y2="6.67"/>
      <line x1="6.67" y1="4" x2="6.67" y2="8"/>
      
      <!-- Bottom face grid -->
      <line x1="1.33" y1="6.67" x2="5.33" y2="6.67"/>
      <line x1="2.67" y1="8" x2="6.67" y2="8"/>
    </g>
  </g>
</svg>